<svg width="24" height="24" viewBox="0 0 24 24" fill="none" xmlns="http://www.w3.org/2000/svg">
    <!-- Fingerprint -->
    <path d="M12 1C7.59 1 4 4.59 4 9V11C4 12.1 4.9 13 6 13C7.1 13 8 12.1 8 11V9C8 6.24 10.24 4 13 4C15.76 4 18 6.24 18 9V14.5C18 15.88 16.88 17 15.5 17C14.12 17 13 15.88 13 14.5V9C13 7.9 12.1 7 11 7C9.9 7 9 7.9 9 9V12C9 16.42 12.58 20 17 20C18.1 20 19 19.1 19 18C19 16.9 18.1 16 17 16C15.9 16 15 15.1 15 14V9C15 6.24 12.76 4 10 4C7.24 4 5 6.24 5 9V11"
        stroke="black" stroke-width="2" stroke-linecap="round" stroke-linejoin="round"/>

    <!-- Sign-in arrow -->
    <path d="M21 12H13" stroke="black" stroke-width="2" stroke-linecap="round"/>
    <path d="M17 8L21 12L17 16" stroke="black" stroke-width="2" stroke-linecap="round" stroke-linejoin="round"/>
</svg>
